<svg xmlns="http://www.w3.org/2000/svg" xmlns:xlink="http://www.w3.org/1999/xlink" viewBox="0 0 61.44 126.35"><defs><style>.cls-1,.cls-7{fill:url(#radial-gradient);}.cls-1,.cls-2,.cls-3{clip-rule:evenodd;}.cls-2,.cls-3,.cls-4{fill:none;}.cls-3{clip-path:url(#clip-path);}.cls-10,.cls-11,.cls-4,.cls-6,.cls-7,.cls-9{fill-rule:evenodd;}.cls-5,.cls-6{fill:#f3f3f3;}.cls-8{clip-path:url(#clip-path-2);}.cls-10{fill:url(#radial-gradient-3);}.cls-11{fill:#a98b51;}.cls-12{clip-path:url(#clip-path-3);}</style><radialGradient id="radial-gradient" cx="27.7" cy="63.71" r="48.12" gradientTransform="translate(0 -0.07)" gradientUnits="userSpaceOnUse"><stop offset="0" stop-color="#1e1e1e"/><stop offset="1" stop-color="#111"/></radialGradient><clipPath id="clip-path"><path id="SVGID" class="cls-2" d="M33.6,32.21s-3.73,1.65-4.74,4.51a11.51,11.51,0,0,0,2.46,3.49,20.88,20.88,0,0,1-1.1-3.33,11.6,11.6,0,0,0,3.09,2.36s-.68-3.39,1.51-4.71A4.09,4.09,0,0,0,35,35.79S41.19,28,42.39,22.34a4.27,4.27,0,0,0-.84.6s3-11.57,7.32-16.54l.85,2.06L48.1,21.69l-4,3.74-1.38,6.71L39,38.05l-2.16,4.44-.08,1.43s-3.92,2.5-6.21.68c0,0-3.27,2-5.07,2-3.77,0-2.8-6-9.74-4.89a65.42,65.42,0,0,0-3.47,11.37s2.06,6.8,1.51,11.88l.76,1.62-.78,2.3a6.55,6.55,0,0,1,1.4,4.19,3.47,3.47,0,0,0,.58,1.62,1,1,0,0,1-1.2-.58c-.36-.81-.78-1.58-1.42-1.79,0,0-4.13-15-3.12-20l1.06-1.85s1.77-7,3.92-10.91c0,0,3.6-2.83,6.54-3.53,0,0,.61,1.86,4.32,2.89a12.45,12.45,0,0,1-.11-5.14,12.14,12.14,0,0,0,2.83-.65l1,.2,2.91-1.72,1.14.64Z"/></clipPath><clipPath id="clip-path-2"><path id="SVGID-2" data-name="SVGID" class="cls-1" d="M35.21,125.06c-.33,1.47-4.22,1.33-9.66,1.24-10.93-.19-11-4-18.64-5.48a10.73,10.73,0,0,0,1.68-5.1s-5.22-4.28-7.45-10.1c0,0,3-2.6,3.31-8.89.16-3.74,2.68-4.15,4.23-6.54a29.81,29.81,0,0,0,3.45-12.92s-1-.32-2.21-2.39a31.94,31.94,0,0,1,1.31-4.46s-4.34-16.28-.64-18.74l.48-1.27s-4.9,0-4.46-3A2.87,2.87,0,0,0,9,45.24S7.13,43.08,7.47,41s2.7-3.33,4.38-4.92.2-5,3.78-7.11c0,0-.82-2.76,2.39-4.12,0,0,.06-5.18,3.37-6.34a6.5,6.5,0,0,1,5.46.23s5.36-.18,3.76,3.48a11.66,11.66,0,0,1,.18,1.8,1.08,1.08,0,0,1,.58.2V26.1a2.87,2.87,0,0,1-.5.13s.24.74.35,1.3c0,0-.37,4.54-2.69,5.53a6.52,6.52,0,0,0,.12,2.23s1.26-2.44,5.53-3.18l5.89-9.86s-1-4,6.71-16.08a7.72,7.72,0,0,1,3-5.19h2.9a8.65,8.65,0,0,1,1.58,2.18l-1.13,2a18.76,18.76,0,0,1-3.36.34,4,4,0,0,1-1,.89s-.93,6.2-1.23,8S45.79,21,44,22.16a42.63,42.63,0,0,1-7.81,15,17,17,0,0,0-1,4.2,17.56,17.56,0,0,1,1.64,2.56,4.93,4.93,0,0,1-1.75,4.69s0,4.1,0,5.24a16.3,16.3,0,0,0-.88,2.67S36.29,60.06,37,61.6a9,9,0,0,1-.21,1.89A17.32,17.32,0,0,1,37.84,66s-.17,2.2-.31,3.16a38.19,38.19,0,0,1,1.52,5.7,2.6,2.6,0,0,1-.53.8S37.67,92.68,35,97a24.55,24.55,0,0,1-3.05,13.27,9.3,9.3,0,0,0,.41,8.53,3.51,3.51,0,0,1-.41,1s1.54,4.27,3.3,5.22ZM13.77,68.87a15.61,15.61,0,0,1,0-4.37c.37-1.41,1.36-7.94.24-9.3l2.11-4.26a20.23,20.23,0,0,0,4.68-.57A30.29,30.29,0,0,1,22,54.76a18.43,18.43,0,0,0-5.38,8.08c-1.82,5.31-2.64,5.48-2.81,6Z"/></clipPath><radialGradient id="radial-gradient-3" cx="28.32" cy="31.12" r="0.55" gradientTransform="matrix(1, 0, 0, 1, 0, 0)" xlink:href="#radial-gradient"/><clipPath id="clip-path-3"><path id="SVGID-3" data-name="SVGID" class="cls-3" d="M35.21,125.06c-.33,1.47-4.22,1.33-9.66,1.24-10.93-.19-11-4-18.64-5.48a10.73,10.73,0,0,0,1.68-5.1s-5.22-4.28-7.45-10.1c0,0,3-2.6,3.31-8.89.16-3.74,2.68-4.15,4.23-6.54a29.81,29.81,0,0,0,3.45-12.92s-1-.32-2.21-2.39a31.94,31.94,0,0,1,1.31-4.46s-4.34-16.28-.64-18.74l.48-1.27s-4.9,0-4.46-3A2.87,2.87,0,0,0,9,45.24S7.13,43.08,7.47,41s2.7-3.33,4.38-4.92.2-5,3.78-7.11c0,0-.82-2.76,2.39-4.12,0,0,.06-5.18,3.37-6.34a6.5,6.5,0,0,1,5.46.23s5.36-.18,3.76,3.48a11.66,11.66,0,0,1,.18,1.8,1.08,1.08,0,0,1,.58.2V26.1a2.87,2.87,0,0,1-.5.13s.24.74.35,1.3c0,0-.37,4.54-2.69,5.53a6.52,6.52,0,0,0,.12,2.23s1.26-2.44,5.53-3.18l5.89-9.86s-1-4,6.71-16.08a7.72,7.72,0,0,1,3-5.19h2.9a8.65,8.65,0,0,1,1.58,2.18l-1.13,2a18.76,18.76,0,0,1-3.36.34,4,4,0,0,1-1,.89s-.93,6.2-1.23,8S45.79,21,44,22.16a42.63,42.63,0,0,1-7.81,15,17,17,0,0,0-1,4.2,17.56,17.56,0,0,1,1.64,2.56,4.93,4.93,0,0,1-1.75,4.69s0,4.1,0,5.24a16.3,16.3,0,0,0-.88,2.67S36.29,60.06,37,61.6a9,9,0,0,1-.21,1.89A17.32,17.32,0,0,1,37.84,66s-.17,2.2-.31,3.16a38.19,38.19,0,0,1,1.52,5.7,2.6,2.6,0,0,1-.53.8S37.67,92.68,35,97a24.55,24.55,0,0,1-3.05,13.27,9.3,9.3,0,0,0,.41,8.53,3.51,3.51,0,0,1-.41,1s1.54,4.27,3.3,5.22ZM13.77,68.87a15.61,15.61,0,0,1,0-4.37c.37-1.41,1.36-7.94.24-9.3l2.11-4.26a20.23,20.23,0,0,0,4.68-.57A30.29,30.29,0,0,1,22,54.76a18.43,18.43,0,0,0-5.38,8.08c-1.82,5.31-2.64,5.48-2.81,6Z"/></clipPath></defs><title>Иллюстрация</title><g id="Слой_2" data-name="Слой 2"><g id="Слой_2-2" data-name="Слой 2"><path class="cls-5" d="M51.3,4.37l-.14,0a.63.63,0,0,0-.38.19.84.84,0,0,0-.09.28V23.28a.55.55,0,0,0,.09.28.49.49,0,0,0,.75,0,.47.47,0,0,0,.09-.28V4.81a.8.8,0,0,0,0-.15A.52.52,0,0,0,51.3,4.37Z"/><path class="cls-6" d="M56.76,54.89a4.68,4.68,0,0,0,4.68-4.68H52.09A4.68,4.68,0,0,0,56.76,54.89Z"/><path class="cls-5" d="M57.19,20.94a.54.54,0,0,0-.34-.26.58.58,0,0,0-.29.05.55.55,0,0,0-.24.35l-3.5,30.23a.75.75,0,0,0,0,.15.46.46,0,0,0,.17.26.48.48,0,0,0,.28.1h7l.15,0a.47.47,0,0,0,.3-.34c0-.05,0-.1,0-.15L57.23,21.08A.43.43,0,0,0,57.19,20.94Zm-3.4,30q1.5-12.88,3-25.76l3,25.76Z"/><path class="cls-6" d="M46,58.11a4.68,4.68,0,0,0,4.68-4.68H41.31A4.68,4.68,0,0,0,46,58.11Z"/><path class="cls-5" d="M46.42,24.16a.57.57,0,0,0-.34-.26.56.56,0,0,0-.29.05.6.6,0,0,0-.25.36L42,54.53a.76.76,0,0,0,0,.15.42.42,0,0,0,.16.26.51.51,0,0,0,.29.1h7a.39.39,0,0,0,.15,0,.49.49,0,0,0,.3-.34.75.75,0,0,0,0-.15l-3.5-30.22A.83.83,0,0,0,46.42,24.16Zm-3.4,30q1.48-12.87,3-25.75l3,25.75Z"/><path class="cls-5" d="M56.89,20.69H56.8a.29.29,0,0,0-.17,0L45.86,23.92a.45.45,0,0,0-.19.11.47.47,0,0,0,.19.77.38.38,0,0,0,.26,0l10.77-3.22a.59.59,0,0,0,.19-.11A.48.48,0,0,0,56.89,20.69Z"/><path id="SVGID-5" data-name="SVGID" class="cls-7" d="M35.21,125.06c-.33,1.47-4.22,1.33-9.66,1.24-10.93-.19-11-4-18.64-5.48a10.73,10.73,0,0,0,1.68-5.1s-5.22-4.28-7.45-10.1c0,0,3-2.6,3.31-8.89.16-3.74,2.68-4.15,4.23-6.54a29.81,29.81,0,0,0,3.45-12.92s-1-.32-2.21-2.39a31.94,31.94,0,0,1,1.31-4.46s-4.34-16.28-.64-18.74l.48-1.27s-4.9,0-4.46-3A2.87,2.87,0,0,0,9,45.24S7.13,43.08,7.47,41s2.7-3.33,4.38-4.92.2-5,3.78-7.11c0,0-.82-2.76,2.39-4.12,0,0,.06-5.18,3.37-6.34a6.5,6.5,0,0,1,5.46.23s5.36-.18,3.76,3.48a11.66,11.66,0,0,1,.18,1.8,1.08,1.08,0,0,1,.58.2V26.1a2.87,2.87,0,0,1-.5.13s.24.74.35,1.3c0,0-.37,4.54-2.69,5.53a6.52,6.52,0,0,0,.12,2.23s1.26-2.44,5.53-3.18l5.89-9.86s-1-4,6.71-16.08a7.72,7.72,0,0,1,3-5.19h2.9a8.65,8.65,0,0,1,1.58,2.18l-1.13,2a18.76,18.76,0,0,1-3.36.34,4,4,0,0,1-1,.89s-.93,6.2-1.23,8S45.79,21,44,22.16a42.63,42.63,0,0,1-7.81,15,17,17,0,0,0-1,4.2,17.56,17.56,0,0,1,1.64,2.56,4.93,4.93,0,0,1-1.75,4.69s0,4.1,0,5.24a16.3,16.3,0,0,0-.88,2.67S36.29,60.06,37,61.6a9,9,0,0,1-.21,1.89A17.32,17.32,0,0,1,37.84,66s-.17,2.2-.31,3.16a38.19,38.19,0,0,1,1.52,5.7,2.6,2.6,0,0,1-.53.8S37.67,92.68,35,97a24.55,24.55,0,0,1-3.05,13.27,9.3,9.3,0,0,0,.41,8.53,3.51,3.51,0,0,1-.41,1s1.54,4.27,3.3,5.22ZM13.77,68.87a15.61,15.61,0,0,1,0-4.37c.37-1.41,1.36-7.94.24-9.3l2.11-4.26a20.23,20.23,0,0,0,4.68-.57A30.29,30.29,0,0,1,22,54.76a18.43,18.43,0,0,0-5.38,8.08c-1.82,5.31-2.64,5.48-2.81,6Z"/><g class="cls-8"><path class="cls-6" d="M21.77,17.48l-2.42,1.6-1.56,3.21a5.43,5.43,0,0,1,2.08-1.8,11.46,11.46,0,0,0,.11,3,4.89,4.89,0,0,1,1.7-3,6.9,6.9,0,0,1,2.94-1.42,9.1,9.1,0,0,0-4.19.6c2.64-2,6.44-1,6.44-1l0-.78-2.6-.7Z"/><path class="cls-6" d="M30.46,18.11l-2.76,0v.42s2.92.75,2.73,3.3c0,0-.59-1.16-3.54-.77a4.26,4.26,0,0,0-1,1.56,6.71,6.71,0,0,0-1.95,1,6.91,6.91,0,0,1,4.59,0s-4.06-.3-6.23,1.71A11.68,11.68,0,0,1,26,25a5.76,5.76,0,0,0-3.08,1.27,23.8,23.8,0,0,1,8.44-.18l1.76-1.25L32.51,21Z"/><path class="cls-6" d="M31.49,27.71a2,2,0,0,0-1.25-.46,3.37,3.37,0,0,1-1.77-.75c.08.4.19,1,.34,1.91.12,0,.51.16.56.28s-.75.73-1.56.45c-.18-.49-.9-1.35-1.52-1.35a4.73,4.73,0,0,0-2.42.93s1.44,4,4.8,3.68,2.67-1.78,2.67-1.78L32,27.55Z"/><path class="cls-9" d="M29.42,29.86a.87.87,0,0,0-.62,0c-1-.37-1.52.75-1.52.75a6.1,6.1,0,0,1,1.45-.25,1.41,1.41,0,0,1,.63.23S29.81,30.07,29.42,29.86Z"/><path class="cls-10" d="M28.7,30.75a2.76,2.76,0,0,0-1.06.23s.47.62.85.5A.86.86,0,0,0,29,31,.32.32,0,0,0,28.7,30.75Z"/><path class="cls-11" d="M18.6,21.66l-1,1.32A4.53,4.53,0,0,1,18,24.84,3.85,3.85,0,0,0,18.78,27,15.14,15.14,0,0,1,18.6,21.66Z"/><path class="cls-11" d="M16.84,24.82l-1,.21-1.29,2.6,1.08,1.27c.49,4.22-.19,5.63-.19,5.63,1.45-1,1.31-4.18,1-5.75a7.37,7.37,0,0,1,.47-3.37Z"/><path class="cls-11" d="M22.18,29.67s-2.46-.28-2.37-1.91c.05-.75.77-.12.77-.12s-.41-.73-1-.59-.82,2.57,2.09,3.21v4.91s.33-1.73.57-3.49a3.77,3.77,0,0,0,2.69,1.76S22.4,32,22.18,29.67Z"/><path class="cls-6" d="M41.55,22.94a4.27,4.27,0,0,1,.84-.6C41.19,28,35,35.79,35,35.79a4.09,4.09,0,0,1-.15-1.26c-2.19,1.32-1.51,4.71-1.51,4.71a11.6,11.6,0,0,1-3.09-2.36,19.86,19.86,0,0,0,1.1,3.33,11.51,11.51,0,0,1-2.46-3.49c1-2.86,4.74-4.51,4.74-4.51l-1.14-.64-2.91,1.72-1-.2a12.14,12.14,0,0,1-2.83.65,12.5,12.5,0,0,0,.11,5.15c-3.71-1-4.32-2.9-4.32-2.9-2.94.7-6.54,3.53-6.54,3.53-2.15,3.94-3.92,10.91-3.92,10.91L10,52.28c-1,5,3.12,20,3.12,20,.64.21,1.06,1,1.42,1.79a1,1,0,0,0,1.2.58,3.47,3.47,0,0,1-.58-1.62,6.55,6.55,0,0,0-1.4-4.19l.78-2.3L13.77,65c.55-5.08-1.51-11.88-1.51-11.88A65.42,65.42,0,0,1,15.73,41.7c6.94-1.14,6,4.87,9.74,4.89,1.8,0,5.07-2,5.07-2,2.29,1.82,6.2-.68,6.2-.68l.09-1.43L39,38.05l3.78-5.91,1.38-6.71,4-3.74L49.72,8.46,48.87,6.4C44.51,11.37,41.55,22.94,41.55,22.94Z"/></g><g class="cls-12"><path class="cls-11" d="M30.36,32.78l-1.21,1.35-.52,1.13a5.24,5.24,0,0,0,.24,1.46l2.29-1.29,2.65-2.89.12-1.28-1.41-.08Z"/></g><g class="cls-12"><path class="cls-6" d="M35.3,48.9s-3.21,2.77-4.93,3c0,0-2.68,5.69.42,10.55,0,0-2.36-.47-2.8-1.94,0,0,0,5.16,3.93,5.16s5.13-4.13,5.13-4.13L37,56.63Z"/><path class="cls-6" d="M27.7,67.73A3.9,3.9,0,0,0,31.62,70c3.14,0,6.24-4,6.24-4l.56-2.16-1.65-.33A7.55,7.55,0,0,1,27.7,67.73Z"/><path class="cls-6" d="M37.53,69.16A3.9,3.9,0,0,1,34,72.26c-3.14.39-8.54,5.15-7.84,19.85,0,0,1.79-18.43,10.91-17.87,2,.12,4.6,2.23,4.6,2.23L40.06,70Z"/><path class="cls-6" d="M39.53,76.57l-1-.9s-6.17-.89-7.13,8.53c-.72,7,1.25,9.84,2.44,10s2.07.19,4.56-8.92S39.53,76.57,39.53,76.57Z"/><path class="cls-11" d="M31.78,97.55S33.08,98.9,35,97l1.69-1.29.34-3.14S33.72,98.48,31.78,97.55Z"/><path class="cls-11" d="M35,96.25l-.57.88a23.81,23.81,0,0,1-1.89,10.21c-2.28,5.4-3.23,7-.17,11.46l.71-6.18s4-6.9,4-7.53-.76-7.51-.76-7.51Z"/><path class="cls-6" d="M32.14,119.94a13,13,0,0,1-2.32-.78c-1,2.33.87,4.47,2.35,5.37a4.46,4.46,0,0,0,3,.52l.37-.3-1.18-2.45Z"/><path class="cls-6" d="M21.09,70.89s1-2.59,3-3.29c0,0-2.11,4-1.69,7.18s-2.47,7.14-2.47,7.14a9.21,9.21,0,0,0,4-6.64c.62-4.7,2.59-4.81,2.59-4.81L24.6,65.94S21.29,64.79,21.09,70.89Z"/><path class="cls-6" d="M24.94,77.92c-.82,7-2.81,10.52-2.81,10.52s2.64-1.94,3.73-8.22c.49-2.86,1.11-5.9,3.61-7.16C29.47,73.06,25.41,74,24.94,77.92Z"/><path class="cls-11" d="M28.87,85.78s-.32,2.06.6,8.38c.5,3.41-1.31,7.87-1.31,7.87a10.54,10.54,0,0,0,2.33-7C30.18,91.4,29.47,90.51,28.87,85.78Z"/><path class="cls-6" d="M21.08,64.19c-.85,1.31-.52,2.48-1.17,3.46a4.61,4.61,0,0,0,1.67-2.15,2.84,2.84,0,0,1,1.94-1.86A2,2,0,0,0,21.08,64.19Z"/><path class="cls-11" d="M18.33,45.81a14.34,14.34,0,0,1,2.45,4.59l-.87,3.54-2.69,3.82-1.66,6.05-.4,2.47a22,22,0,0,0,2.82-5c1.5-3.42,3.81-5.69,4.86-6.22C22.84,55.11,21.19,46.58,18.33,45.81Z"/><path class="cls-11" d="M21.25,45.42a6,6,0,0,0-3.58-1.32,6.83,6.83,0,0,1,2.74,1.71c1.88,5.53,6.51,2.89,6.51,2.89C21.49,49.47,21.25,45.42,21.25,45.42Z"/><path class="cls-11" d="M31.89,48.25c1.22,1,3.19.33,3.19.33l2.21-.93.26-2.28-.64-.43C35.92,48.64,31.89,48.25,31.89,48.25Z"/><path class="cls-11" d="M18,46.45l-.07.21Z"/><path class="cls-11" d="M18,46.45l.07-.2Z"/><path class="cls-11" d="M18.08,46.25l.09-.25Z"/><path class="cls-11" d="M18.17,46l.09-.25Z"/><path class="cls-11" d="M14,55.16a82.57,82.57,0,0,0,3.9-8.45S14.76,52,13.6,54.53A6.74,6.74,0,0,0,14,55.16Z"/><path class="cls-11" d="M17.94,46.66l0,.05Z"/><path class="cls-11" d="M18.37,45.43l0-.06Z"/><path class="cls-11" d="M18.26,45.75l.07-.19Z"/><path class="cls-11" d="M18.39,45.37h0Z"/><path class="cls-11" d="M18.4,45.36c0-.09,0-.07,0,0Z"/><path class="cls-11" d="M18.33,45.56l0-.13Z"/><path class="cls-11" d="M16.11,50.33l-.32.85.89.39,2.5-.5,1.9-.49-.19-.79A20.69,20.69,0,0,1,16.11,50.33Z"/><path class="cls-11" d="M8.92,45.25,6.77,46.33l-.85.38L5.56,48.1l1.08,2.13a8.15,8.15,0,0,0,1.91.45c.37-.07.88,0,1.16,0s1-.26,1-.26-3.27-.8-3.32-2.34a3.71,3.71,0,0,0,2.45-3.14c.37-2.56,1-3.3,1.8-3.73C11.69,41.21,9.64,41.55,8.92,45.25Z"/><path class="cls-11" d="M5.9,41.21v2.47l1.43,1.26,1.82,1,.26-1.46s-1.48-1.85-1.21-3.28a7.87,7.87,0,0,1,2.3-4L6.84,38Z"/><path class="cls-11" d="M13.06,31.23s-.13,1.67-.43,3.47a21.29,21.29,0,0,1-1.54,4.36c2.35-1.18,2.82-5.87,2.94-7.14a13,13,0,0,1,.62-2.72l-.81.26Z"/><path class="cls-11" d="M39.65,12.2,38,18.29l-.94,5-2.24,7.91s4.74-7.37,6.27-8.86c0,0-.87-4.73,4.36-14.08Z"/><path class="cls-11" d="M50.1,3.91S49.32,5.07,48.62,5s-.87-1.07-.87-1.07-.4,1.87.92,1.72a1.72,1.72,0,0,0,1.57-1.16,1.07,1.07,0,0,0,.87-.52A2,2,0,0,1,50.1,3.91Z"/><path class="cls-11" d="M49.78,5.48l.64.36h.91l2.13-.55.5-1.6a7.71,7.71,0,0,0-1.2,1C51.93,5,49.78,5.48,49.78,5.48Z"/><path class="cls-6" d="M51.11,0,48.89.82l-.14.4a1.77,1.77,0,0,0,1.39,2.26,3.13,3.13,0,0,1,.12-1.25s1,.71,4,.94l.87-1.54L52,.06Z"/><path class="cls-11" d="M12,70.33c-.63-1-2.9-11.35-2.9-11.35l.38,10.25s-1,3.34-1.22,3.86.36,3.21.36,3.21l2,1.34,1.52-.37a15.2,15.2,0,0,1-1.39-2.57A40.08,40.08,0,0,1,12,70.33Z"/><path class="cls-11" d="M12.13,93.23s-1,1.42-.39,5.69c0,0-3.53,6.23-3.55,11.73a21.73,21.73,0,0,1,.38,5l-2.08,2.59s-.76,1.17-.45,1.6a10.68,10.68,0,0,0,.88,1s2.74-2.06,2.91-4.71a20.93,20.93,0,0,0-.67-5.71s1.33-8.51,3.68-11.23C12.84,99.2,11.53,95.87,12.13,93.23Z"/><path class="cls-11" d="M4.69,86.32,1.3,93.23l-.36,7.68L0,105.49.82,107s4.37-1.71,4.68-9.8c.13-3.67,3.16-4.48,4.52-7.31s1.21-8.4,1.21-8.4Z"/></g><path class="cls-6" d="M15.13,76.74l-1.45-2-1.13,2.46,7.19,37.12a23.92,23.92,0,0,0,2.83,7.53,25.33,25.33,0,0,0-.25-8C20.32,103.56,15.13,76.74,15.13,76.74Z"/><polygon class="cls-6" points="9.09 78.71 7.83 80.57 21.09 78 19.24 76.74 9.09 78.71"/></g></g></svg>